<svg width="1209" height="285" viewBox="0 0 1209 285" fill="none" xmlns="http://www.w3.org/2000/svg">
<g clip-path="url(#clip0_1451_26424)">
<path d="M59.75 8.10156H0V67.8516H59.75V8.10156Z" fill="#F01A2C"/>
<path d="M231.901 8.10156H89.7109V60.4716V67.8516V277.362H158.321V67.8516H231.901V8.10156Z" fill="#023444"/>
<path d="M223.07 171.48V111.73H332.38V171.48H223.07Z" fill="#023444"/>
<path d="M1187.43 170.579C1169.79 156.509 1140.19 150.829 1113.07 147.509C1098.22 145.689 1084.51 144.839 1084.29 130.539C1084.09 118.159 1098.3 115.219 1110.12 115.039C1127.43 114.839 1141.32 121.659 1144.44 137.189H1203.48C1201.18 87.3386 1159.01 67.8386 1110.86 67.8086C1081.67 67.9686 1052.74 74.9486 1035.58 97.1486C1018.84 118.899 1021.33 158.419 1042.96 177.769C1055.55 189.029 1074.45 196.479 1100.53 199.169C1100.53 199.169 1111.05 200.299 1114.56 200.649C1127.58 201.949 1136.52 204.239 1141.5 207.469C1151.69 214.079 1151.44 228.409 1139.47 232.939C1119.57 240.469 1082.38 238.239 1077.66 214.299H1018.61C1022.13 265.399 1064.91 283.979 1115.66 284.039C1148.19 283.819 1178.78 276.749 1197.39 252.669C1215.33 229.049 1212.1 190.239 1187.43 170.559V170.579Z" fill="#023444"/>
<path d="M828.061 106.971C795.571 57.5209 722.031 70.9409 669.951 73.0509V129.071C686.981 128.091 709.281 127.041 726.671 126.501C751.591 125.711 775.431 122.941 775.131 153.051C750.241 152.991 715.621 152.841 693.661 159.681C650.981 172.971 634.751 215.961 657.151 252.381C671.371 275.511 699.931 283.601 727.381 282.151C751.621 280.861 775.811 275.231 786.261 253.611V277.271H839.721V153.781C839.721 134.871 835.831 119.251 828.051 106.971H828.061ZM721.841 194.511C726.871 190.061 733.831 187.701 742.981 187.701H775.231V202.061C774.351 216.891 770.561 228.321 758.731 234.331C748.301 239.361 729.901 238.101 721.841 230.631C712.251 221.741 712.211 203.041 721.841 194.511Z" fill="#023444"/>
<path d="M1008.82 70.8099C1003.66 70.7399 996.799 70.88 991.749 71.35C959.799 73.28 935.669 87.8199 931.919 119.06V73.8L878.289 73.82V277.32H945.769V175.57C945.579 145.28 963.169 128.28 993.229 128.38H1008.8V70.8099H1008.82Z" fill="#023444"/>
<path d="M545.649 207.889C520.829 226.289 476.059 225.479 455.309 199.419C431.659 169.679 431.879 115.529 454.939 85.5492C483.659 49.4592 554.689 60.2292 562.289 110.379H627.429C620.859 16.0592 519.879 -21.5808 444.969 12.1492C346.769 57.2992 348.339 224.639 444.619 271.729C521.059 307.429 621.729 268.859 631.269 174.399H566.139C563.799 188.389 556.969 199.549 545.639 207.889" fill="#023444"/>
</g>
<defs>
<clipPath id="clip0_1451_26424">
<rect width="1208.77" height="284.87" fill="white"/>
</clipPath>
</defs>
</svg>
